<svg class="svg-standalone-icon" width="100%" viewBox="222.2066488384728 115 105.5867023230544 160.0314257686597"><g data-paper-data="{&quot;isIcon&quot;:&quot;true&quot;,&quot;iconType&quot;:&quot;icon&quot;,&quot;rawIconId&quot;:&quot;1072002&quot;,&quot;selectedEffects&quot;:{&quot;container&quot;:&quot;&quot;,&quot;transformation&quot;:&quot;&quot;,&quot;pattern&quot;:&quot;&quot;},&quot;isDetailed&quot;:false,&quot;fillRule&quot;:&quot;evenodd&quot;,&quot;bounds&quot;:{&quot;x&quot;:222.2066488384728,&quot;y&quot;:115,&quot;width&quot;:105.5867023230544,&quot;height&quot;:160.0314257686597},&quot;iconStyle&quot;:&quot;standalone&quot;,&quot;suitableAsStandaloneIcon&quot;:true}" fill-rule="evenodd"><path d="M275.93669,115c-28.63874,0 -51.85505,23.2163 -51.85505,51.85504c0,28.63874 23.2163,51.85505 51.85505,51.85505c28.63874,0 51.85666,-23.2163 51.85666,-51.85505c0,-28.63874 -23.21793,-51.85504 -51.85666,-51.85504zM275.93669,185.89027c-10.51265,0 -19.03523,-8.5242 -19.03523,-19.03685c0,-10.51265 8.52259,-19.03523 19.03523,-19.03523c10.51426,0 19.03523,8.52259 19.03523,19.03523c0,10.51265 -8.52096,19.03685 -19.03523,19.03685zM275.93831,169.94709c2.06136,0 3.09205,-1.03068 3.09205,-3.09205c0,-2.06136 -1.03068,-3.09205 -3.09205,-3.09205c-2.06136,0 -3.09205,1.03068 -3.09205,3.09205c0,2.06136 1.03068,3.09205 3.09205,3.09205zM275.5813,163.79346c-1.69501,0.10793 -2.59653,1.00945 -2.70457,2.70457c0.01999,-0.17113 0.05407,-0.33946 0.10226,-0.50497c0.04819,-0.16541 0.10982,-0.32568 0.18491,-0.48082c0.07497,-0.15504 0.16243,-0.30278 0.26237,-0.44322c0.09983,-0.14045 0.21067,-0.27161 0.33254,-0.39348c0.12186,-0.12186 0.25303,-0.23272 0.39348,-0.33254c0.14045,-0.09993 0.28819,-0.18739 0.44322,-0.26237c0.15514,-0.07509 0.31541,-0.13672 0.48082,-0.18491c0.16551,-0.04819 0.33384,-0.08227 0.50497,-0.10226zM278.9999,166.49803c-0.10804,-1.69512 -1.00956,-2.59664 -2.70457,-2.70457c0.17113,0.01999 0.33946,0.05407 0.50497,0.10226c0.16541,0.04819 0.32568,0.10982 0.48082,0.18491c0.15504,0.07497 0.30278,0.16243 0.44322,0.26237c0.14045,0.09983 0.27161,0.21067 0.39348,0.33254c0.12186,0.12186 0.23272,0.25303 0.33254,0.39348c0.09993,0.14045 0.18739,0.28819 0.26237,0.44322c0.07509,0.15514 0.13672,0.31541 0.18491,0.48082c0.04819,0.16551 0.08227,0.33384 0.10226,0.50497zM275.5813,169.91662c-0.17113,-0.01999 -0.33946,-0.05407 -0.50497,-0.10226c-0.16541,-0.04819 -0.32568,-0.10982 -0.48082,-0.18491c-0.15504,-0.07497 -0.30278,-0.16243 -0.44322,-0.26237c-0.14045,-0.09983 -0.27161,-0.21067 -0.39348,-0.33254c-0.12186,-0.12186 -0.23272,-0.25303 -0.33254,-0.39348c-0.09993,-0.14045 -0.18739,-0.28819 -0.26237,-0.44322c-0.07509,-0.15514 -0.13672,-0.31541 -0.18491,-0.48082c-0.04819,-0.16551 -0.08227,-0.33384 -0.10226,-0.50497c0.10804,1.69501 1.00956,2.59653 2.70457,2.70457zM278.9999,167.21205c-0.01999,0.17113 -0.05407,0.33946 -0.10226,0.50497c-0.04819,0.16541 -0.10982,0.32568 -0.18491,0.48082c-0.07497,0.15504 -0.16243,0.30278 -0.26237,0.44322c-0.09983,0.14045 -0.21067,0.27161 -0.33254,0.39348c-0.12186,0.12186 -0.25303,0.23272 -0.39348,0.33254c-0.14045,0.09993 -0.28819,0.18739 -0.44322,0.26237c-0.15514,0.07509 -0.31541,0.13672 -0.48082,0.18491c-0.16551,0.04819 -0.33384,0.08227 -0.50497,0.10226c1.69501,-0.10804 2.59653,-1.00956 2.70457,-2.70457zM286.68432,222.13922l30.14587,0.04538c2.35469,0 4.2621,1.90741 4.2621,4.26373c0,2.35307 -1.90741,4.2621 -4.2621,4.2621c0,0 -10.99396,-0.07617 -21.07715,3.5766c-7.35901,2.66422 -12.41681,7.62154 -12.41681,7.62154c0,0 -3.11636,1.82477 -5.47429,2.07109l-27.16564,4.59108l-28.48964,26.46069v-30.19125l26.75077,-20.10805c0,0 1.84745,-1.70646 3.79052,-2.19101c1.79073,-0.43917 3.76459,-0.45214 3.76459,-0.45214l24.83688,0.02431c0.90914,0 1.79235,0.25119 2.57022,0.73574c0.66119,0.45538 1.23326,1.05499 1.60923,1.78587c0.37597,0.67092 0.57692,1.44555 0.58503,2.24287c-0.02917,2.63667 -2.16671,4.7661 -4.79203,4.7742l-14.02928,-0.04214l-0.03403,2.51189l14.16865,0.04051c3.5685,0.00486 7.51297,-2.46327 7.51297,-6.89067c0.14099,-1.35804 -0.68388,-4.0968 -2.25583,-5.13235z" data-paper-data="{&quot;isPathIcon&quot;:true}"></path></g></svg>