<svg xmlns:mydata="http://www.w3.org/2000/svg" mydata:contrastcolor="11111f" mydata:template="Contrast" mydata:presentation="2.5" mydata:layouttype="undefined" mydata:specialfontid="undefined" mydata:id1="567" mydata:id2="209" mydata:companyname="dupla caipira Tião Carreiro e Pardinho" mydata:companytagline="" version="1.1" xmlns="http://www.w3.org/2000/svg" xmlns:xlink="http://www.w3.org/1999/xlink" viewBox="0 45 550 380"><g fill="#c8c9c7" fill-rule="none" stroke="none" stroke-width="1" stroke-linecap="butt" stroke-linejoin="miter" stroke-miterlimit="10" stroke-dasharray="" stroke-dashoffset="0" font-family="none" font-weight="none" font-size="none" text-anchor="none" style="mix-blend-mode: normal"><g data-paper-data="{&quot;isGlobalGroup&quot;:true,&quot;bounds&quot;:{&quot;x&quot;:123.58385591393608,&quot;y&quot;:115,&quot;width&quot;:302.83228817212785,&quot;height&quot;:240}}"><g data-paper-data="{&quot;isSecondaryText&quot;:true}" fill-rule="nonzero"><path d="M133.62988,346.34831h-5.90702c-0.38187,0 -0.5012,0.13127 -0.5012,0.5012v1.074c0,0.38187 0.11933,0.51313 0.5012,0.51313h1.77807v5.88315c0,0.36993 0.11933,0.5012 0.5012,0.5012h1.34847c0.38187,0 0.51313,-0.13127 0.51313,-0.5012v-5.88315h1.76614c0.38187,0 0.51313,-0.13127 0.51313,-0.51313v-1.074c0,-0.36993 -0.13127,-0.5012 -0.51313,-0.5012z" data-paper-data="{&quot;glyphName&quot;:&quot;T&quot;,&quot;glyphIndex&quot;:0,&quot;firstGlyphOfWord&quot;:true,&quot;word&quot;:1}"></path><path d="M140.42293,346.82564v7.51802c0,0.358 0.11933,0.47733 0.47733,0.47733h1.40814c0.358,0 0.47733,-0.11933 0.47733,-0.47733v-7.51802c0,-0.358 -0.11933,-0.47733 -0.47733,-0.47733h-1.40814c-0.358,0 -0.47733,0.11933 -0.47733,0.47733z" data-paper-data="{&quot;glyphName&quot;:&quot;I&quot;,&quot;glyphIndex&quot;:1,&quot;word&quot;:1}"></path><path d="M154.99967,343.97357h-0.716c-0.179,0 -0.22673,0.05967 -0.22673,0.22673c0,0.19093 -0.0716,0.26253 -0.179,0.26253c-0.3938,0 -0.70407,-0.48927 -1.62294,-0.48927c-0.69214,0 -1.13367,0.33413 -1.13367,1.4678c0,0.179 0.0716,0.27447 0.27447,0.27447h0.72794c0.16707,0 0.22673,-0.0716 0.22673,-0.23867c0,-0.179 0.0716,-0.26253 0.179,-0.26253c0.3938,0 0.70407,0.5012 1.58714,0.5012c0.7518,0 1.16947,-0.358 1.16947,-1.4678c0,-0.19093 -0.05967,-0.27447 -0.2864,-0.27447zM157.31474,354.33173l-2.75661,-7.58962c-0.11933,-0.31027 -0.27447,-0.3938 -0.62054,-0.3938h-1.3604c-0.34607,0 -0.5012,0.0716 -0.62054,0.41767l-2.74467,7.56575c-0.11933,0.3222 -0.04773,0.48927 0.3222,0.48927h1.253c0.59667,0 0.7518,-0.13127 0.87114,-0.5012l0.27447,-0.8592h2.57761l0.27447,0.8592c0.09547,0.36993 0.27447,0.5012 0.895,0.5012h1.2888c0.358,0 0.4654,-0.16707 0.34607,-0.48927zM153.53187,350.19085l0.44153,1.3962h-1.49167l0.44153,-1.40814c0.23867,-0.79954 0.22673,-1.65874 0.22673,-1.65874h0.11933c0,0 0.02387,0.8592 0.26253,1.67067z" data-paper-data="{&quot;glyphName&quot;:&quot;Ã&quot;,&quot;glyphIndex&quot;:2,&quot;word&quot;:1}"></path><path d="M164.00107,349.51065v2.14801c0,2.06447 1.31267,3.34134 3.67548,3.34134c2.35087,0 3.66354,-1.27687 3.66354,-3.34134v-2.14801c0,-2.06447 -1.31267,-3.34134 -3.66354,-3.34134c-2.36281,0 -3.67548,1.27687 -3.67548,3.34134zM168.97729,349.40325v2.36281c0,0.7518 -0.47733,1.1456 -1.30074,1.1456c-0.83534,0 -1.31267,-0.3938 -1.31267,-1.1456v-2.36281c0,-0.7518 0.47733,-1.1456 1.31267,-1.1456c0.8234,0 1.30074,0.3938 1.30074,1.1456z" data-paper-data="{&quot;glyphName&quot;:&quot;O&quot;,&quot;glyphIndex&quot;:3,&quot;lastGlyphOfWord&quot;:true,&quot;word&quot;:1}"></path><path d="M185.18965,349.51065v2.14801c0,2.06447 1.3246,3.34134 3.67548,3.34134c1.83774,0 2.98334,-0.7518 3.48454,-2.08834c0.11933,-0.34607 0.0358,-0.52507 -0.3222,-0.6444l-1.27687,-0.45347c-0.358,-0.13127 -0.5012,-0.04773 -0.6444,0.3222c-0.19093,0.51313 -0.5728,0.77567 -1.24107,0.77567c-0.94274,0 -1.31267,-0.40573 -1.31267,-1.24107v-2.17187c0,-0.83534 0.36993,-1.24107 1.31267,-1.24107c0.66827,0 1.02627,0.23867 1.24107,0.77567c0.13127,0.36993 0.27447,0.4296 0.6444,0.3222l1.27687,-0.45347c0.358,-0.11933 0.44153,-0.29833 0.3222,-0.6444c-0.5012,-1.33654 -1.6468,-2.08834 -3.48454,-2.08834c-2.35087,0 -3.67548,1.27687 -3.67548,3.34134z" data-paper-data="{&quot;glyphName&quot;:&quot;C&quot;,&quot;glyphIndex&quot;:4,&quot;firstGlyphOfWord&quot;:true,&quot;word&quot;:2}"></path><path d="M207.07482,354.33173l-2.75661,-7.58962c-0.11933,-0.31027 -0.27447,-0.3938 -0.62054,-0.3938h-1.3604c-0.34607,0 -0.5012,0.0716 -0.62054,0.41767l-2.74467,7.56575c-0.11933,0.3222 -0.04773,0.48927 0.3222,0.48927h1.253c0.59667,0 0.7518,-0.13127 0.87114,-0.5012l0.27447,-0.8592h2.57761l0.27447,0.8592c0.09547,0.36993 0.27447,0.5012 0.895,0.5012h1.2888c0.358,0 0.4654,-0.16707 0.34607,-0.48927zM203.29194,350.19085l0.44153,1.3962h-1.49167l0.44153,-1.40814c0.23867,-0.79954 0.22673,-1.65874 0.22673,-1.65874h0.11933c0,0 0.02387,0.8592 0.26253,1.67067z" data-paper-data="{&quot;glyphName&quot;:&quot;A&quot;,&quot;glyphIndex&quot;:5,&quot;word&quot;:2}"></path><path d="M218.30386,346.34831h-3.40101c-0.38187,0 -0.51313,0.13127 -0.51313,0.5012v7.47029c0,0.36993 0.13127,0.5012 0.51313,0.5012h1.34847c0.38187,0 0.5012,-0.13127 0.5012,-0.5012v-2.31507h0.27447c0.48927,0 0.69214,0.20287 0.895,0.6086l0.76374,1.63487c0.19093,0.41767 0.4654,0.5728 1.09787,0.5728h1.2888c0.3938,0 0.47733,-0.26253 0.31027,-0.58473l-1.074,-2.04061c-0.09547,-0.19093 -0.20287,-0.358 -0.3222,-0.51313c0.81147,-0.45347 1.2888,-1.2888 1.2888,-2.45827c0,-1.84967 -1.16947,-2.87594 -2.97141,-2.87594zM218.82893,349.21232c0,0.48927 -0.2864,0.79954 -0.7876,0.79954h-1.2888v-1.5752h1.2888c0.51313,0 0.7876,0.29833 0.7876,0.77567z" data-paper-data="{&quot;glyphName&quot;:&quot;R&quot;,&quot;glyphIndex&quot;:6,&quot;word&quot;:2}"></path><path d="M232.72643,346.34831h-3.40101c-0.38187,0 -0.51313,0.13127 -0.51313,0.5012v7.47029c0,0.36993 0.13127,0.5012 0.51313,0.5012h1.34847c0.38187,0 0.5012,-0.13127 0.5012,-0.5012v-2.31507h0.27447c0.48927,0 0.69214,0.20287 0.895,0.6086l0.76374,1.63487c0.19093,0.41767 0.4654,0.5728 1.09787,0.5728h1.2888c0.3938,0 0.47733,-0.26253 0.31027,-0.58473l-1.074,-2.04061c-0.09547,-0.19093 -0.20287,-0.358 -0.3222,-0.51313c0.81147,-0.45347 1.2888,-1.2888 1.2888,-2.45827c0,-1.84967 -1.16947,-2.87594 -2.97141,-2.87594zM233.2515,349.21232c0,0.48927 -0.2864,0.79954 -0.7876,0.79954h-1.2888v-1.5752h1.2888c0.51313,0 0.7876,0.29833 0.7876,0.77567z" data-paper-data="{&quot;glyphName&quot;:&quot;R&quot;,&quot;glyphIndex&quot;:7,&quot;word&quot;:2}"></path><path d="M248.5622,346.34831h-5.00008c-0.38187,0 -0.51313,0.13127 -0.51313,0.5012v7.47029c0,0.36993 0.13127,0.5012 0.51313,0.5012h5.10748c0.36993,0 0.5012,-0.13127 0.5012,-0.5012v-1.08594c0,-0.38187 -0.13127,-0.5012 -0.5012,-0.5012h-3.25781v-1.1456h2.51794c0.38187,0 0.51313,-0.13127 0.51313,-0.51313v-1.074c0,-0.36993 -0.13127,-0.5012 -0.51313,-0.5012h-2.51794v-1.06207h3.15041c0.38187,0 0.51313,-0.13127 0.51313,-0.51313v-1.074c0,-0.36993 -0.13127,-0.5012 -0.51313,-0.5012z" data-paper-data="{&quot;glyphName&quot;:&quot;E&quot;,&quot;glyphIndex&quot;:8,&quot;word&quot;:2}"></path><path d="M255.52698,346.82564v7.51802c0,0.358 0.11933,0.47733 0.47733,0.47733h1.40814c0.358,0 0.47733,-0.11933 0.47733,-0.47733v-7.51802c0,-0.358 -0.11933,-0.47733 -0.47733,-0.47733h-1.40814c-0.358,0 -0.47733,0.11933 -0.47733,0.47733z" data-paper-data="{&quot;glyphName&quot;:&quot;I&quot;,&quot;glyphIndex&quot;:9,&quot;word&quot;:2}"></path><path d="M268.77733,346.34831h-3.40101c-0.38187,0 -0.51313,0.13127 -0.51313,0.5012v7.47029c0,0.36993 0.13127,0.5012 0.51313,0.5012h1.34847c0.38187,0 0.5012,-0.13127 0.5012,-0.5012v-2.31507h0.27447c0.48927,0 0.69214,0.20287 0.895,0.6086l0.76374,1.63487c0.19093,0.41767 0.4654,0.5728 1.09787,0.5728h1.2888c0.3938,0 0.47733,-0.26253 0.31027,-0.58473l-1.074,-2.04061c-0.09547,-0.19093 -0.20287,-0.358 -0.3222,-0.51313c0.81147,-0.45347 1.2888,-1.2888 1.2888,-2.45827c0,-1.84967 -1.16947,-2.87594 -2.97141,-2.87594zM269.30239,349.21232c0,0.48927 -0.2864,0.79954 -0.7876,0.79954h-1.2888v-1.5752h1.2888c0.51313,0 0.7876,0.29833 0.7876,0.77567z" data-paper-data="{&quot;glyphName&quot;:&quot;R&quot;,&quot;glyphIndex&quot;:10,&quot;word&quot;:2}"></path><path d="M279.05535,349.51065v2.14801c0,2.06447 1.31267,3.34134 3.67548,3.34134c2.35087,0 3.66354,-1.27687 3.66354,-3.34134v-2.14801c0,-2.06447 -1.31267,-3.34134 -3.66354,-3.34134c-2.36281,0 -3.67548,1.27687 -3.67548,3.34134zM284.03156,349.40325v2.36281c0,0.7518 -0.47733,1.1456 -1.30074,1.1456c-0.83534,0 -1.31267,-0.3938 -1.31267,-1.1456v-2.36281c0,-0.7518 0.47733,-1.1456 1.31267,-1.1456c0.8234,0 1.30074,0.3938 1.30074,1.1456z" data-paper-data="{&quot;glyphName&quot;:&quot;O&quot;,&quot;glyphIndex&quot;:11,&quot;lastGlyphOfWord&quot;:true,&quot;word&quot;:2}"></path><path d="M305.82666,346.34831h-5.00008c-0.38187,0 -0.51313,0.13127 -0.51313,0.5012v7.47029c0,0.36993 0.13127,0.5012 0.51313,0.5012h5.10748c0.36993,0 0.5012,-0.13127 0.5012,-0.5012v-1.08594c0,-0.38187 -0.13127,-0.5012 -0.5012,-0.5012h-3.25781v-1.1456h2.51794c0.38187,0 0.51313,-0.13127 0.51313,-0.51313v-1.074c0,-0.36993 -0.13127,-0.5012 -0.51313,-0.5012h-2.51794v-1.06207h3.15041c0.38187,0 0.51313,-0.13127 0.51313,-0.51313v-1.074c0,-0.36993 -0.13127,-0.5012 -0.51313,-0.5012z" data-paper-data="{&quot;glyphName&quot;:&quot;E&quot;,&quot;glyphIndex&quot;:12,&quot;firstGlyphOfWord&quot;:true,&quot;lastGlyphOfWord&quot;:true,&quot;word&quot;:3}"></path><path d="M323.92328,346.34831h-3.29361c-0.38187,0 -0.51313,0.13127 -0.51313,0.5012v7.47029c0,0.36993 0.13127,0.5012 0.51313,0.5012h1.34847c0.38187,0 0.5012,-0.13127 0.5012,-0.5012v-2.04061h1.4678c1.84967,0 3.05494,-1.06207 3.05494,-2.94754c0,-1.89741 -1.2172,-2.98334 -3.07881,-2.98334zM323.66074,350.19085h-1.1814v-1.7542h1.1814c0.56087,0 0.895,0.358 0.895,0.88307c0,0.52507 -0.33413,0.87114 -0.895,0.87114z" data-paper-data="{&quot;glyphName&quot;:&quot;P&quot;,&quot;glyphIndex&quot;:13,&quot;firstGlyphOfWord&quot;:true,&quot;word&quot;:4}"></path><path d="M340.8541,354.33173l-2.75661,-7.58962c-0.11933,-0.31027 -0.27447,-0.3938 -0.62054,-0.3938h-1.3604c-0.34607,0 -0.5012,0.0716 -0.62054,0.41767l-2.74467,7.56575c-0.11933,0.3222 -0.04773,0.48927 0.3222,0.48927h1.253c0.59667,0 0.7518,-0.13127 0.87114,-0.5012l0.27447,-0.8592h2.57761l0.27447,0.8592c0.09547,0.36993 0.27447,0.5012 0.895,0.5012h1.2888c0.358,0 0.4654,-0.16707 0.34607,-0.48927zM337.07123,350.19085l0.44153,1.3962h-1.49167l0.44153,-1.40814c0.23867,-0.79954 0.22673,-1.65874 0.22673,-1.65874h0.11933c0,0 0.02387,0.8592 0.26253,1.67067z" data-paper-data="{&quot;glyphName&quot;:&quot;A&quot;,&quot;glyphIndex&quot;:14,&quot;word&quot;:4}"></path><path d="M352.08315,346.34831h-3.40101c-0.38187,0 -0.51313,0.13127 -0.51313,0.5012v7.47029c0,0.36993 0.13127,0.5012 0.51313,0.5012h1.34847c0.38187,0 0.5012,-0.13127 0.5012,-0.5012v-2.31507h0.27447c0.48927,0 0.69214,0.20287 0.895,0.6086l0.76374,1.63487c0.19093,0.41767 0.4654,0.5728 1.09787,0.5728h1.2888c0.3938,0 0.47733,-0.26253 0.31027,-0.58473l-1.074,-2.04061c-0.09547,-0.19093 -0.20287,-0.358 -0.3222,-0.51313c0.81147,-0.45347 1.2888,-1.2888 1.2888,-2.45827c0,-1.84967 -1.16947,-2.87594 -2.97141,-2.87594zM352.60822,349.21232c0,0.48927 -0.2864,0.79954 -0.7876,0.79954h-1.2888v-1.5752h1.2888c0.51313,0 0.7876,0.29833 0.7876,0.77567z" data-paper-data="{&quot;glyphName&quot;:&quot;R&quot;,&quot;glyphIndex&quot;:15,&quot;word&quot;:4}"></path><path d="M366.01918,346.34831h-2.91174c-0.38187,0 -0.51313,0.13127 -0.51313,0.5012v7.47029c0,0.36993 0.13127,0.5012 0.51313,0.5012h2.91174c2.35087,0 3.66354,-1.2888 3.66354,-3.34134v-1.79001c0,-2.06447 -1.31267,-3.34134 -3.66354,-3.34134zM367.31992,349.72545v1.7184c0,0.84727 -0.41767,1.2888 -1.38427,1.2888h-0.97854v-4.29601h0.97854c0.9666,0 1.38427,0.44153 1.38427,1.2888z" data-paper-data="{&quot;glyphName&quot;:&quot;D&quot;,&quot;glyphIndex&quot;:16,&quot;word&quot;:4}"></path><path d="M376.36023,346.82564v7.51802c0,0.358 0.11933,0.47733 0.47733,0.47733h1.40814c0.358,0 0.47733,-0.11933 0.47733,-0.47733v-7.51802c0,-0.358 -0.11933,-0.47733 -0.47733,-0.47733h-1.40814c-0.358,0 -0.47733,0.11933 -0.47733,0.47733z" data-paper-data="{&quot;glyphName&quot;:&quot;I&quot;,&quot;glyphIndex&quot;:17,&quot;word&quot;:4}"></path><path d="M392.37196,346.34831h-1.2172c-0.38187,0 -0.5012,0.13127 -0.5012,0.5012v1.95707c0,1.2172 0.15513,1.79001 0.537,3.01914h-0.09547c-0.38187,-0.90694 -0.47733,-1.3604 -1.0024,-2.18381l-1.95707,-3.05494c-0.1074,-0.16707 -0.22673,-0.23867 -0.5012,-0.23867h-1.40814c-0.38187,0 -0.51313,0.13127 -0.51313,0.5012v7.47029c0,0.36993 0.13127,0.5012 0.51313,0.5012h1.20527c0.38187,0 0.51313,-0.13127 0.51313,-0.5012v-1.94514c0,-1.3246 -0.1432,-1.93321 -0.3938,-3.07881h0.09547c0.3222,1.074 0.52507,1.63487 1.05014,2.45827l1.83774,2.82821c0.1074,0.16707 0.23867,0.23867 0.48927,0.23867h1.34847c0.36993,0 0.5012,-0.13127 0.5012,-0.5012v-7.47029c0,-0.36993 -0.13127,-0.5012 -0.5012,-0.5012z" data-paper-data="{&quot;glyphName&quot;:&quot;N&quot;,&quot;glyphIndex&quot;:18,&quot;word&quot;:4}"></path><path d="M407.29894,346.33638h-1.3604c-0.36993,0 -0.5012,0.13127 -0.5012,0.51313v2.63727h-2.31507v-2.63727c0,-0.38187 -0.11933,-0.51313 -0.5012,-0.51313h-1.34847c-0.38187,0 -0.51313,0.13127 -0.51313,0.51313v7.47029c0,0.36993 0.13127,0.5012 0.51313,0.5012h1.34847c0.38187,0 0.5012,-0.13127 0.5012,-0.5012v-2.74467h2.31507v2.74467c0,0.36993 0.13127,0.5012 0.5012,0.5012h1.3604c0.36993,0 0.5012,-0.13127 0.5012,-0.5012v-7.47029c0,-0.38187 -0.13127,-0.51313 -0.5012,-0.51313z" data-paper-data="{&quot;glyphName&quot;:&quot;H&quot;,&quot;glyphIndex&quot;:19,&quot;word&quot;:4}"></path><path d="M415.43932,349.51065v2.14801c0,2.06447 1.31267,3.34134 3.67548,3.34134c2.35087,0 3.66354,-1.27687 3.66354,-3.34134v-2.14801c0,-2.06447 -1.31267,-3.34134 -3.66354,-3.34134c-2.36281,0 -3.67548,1.27687 -3.67548,3.34134zM420.41554,349.40325v2.36281c0,0.7518 -0.47733,1.1456 -1.30074,1.1456c-0.83534,0 -1.31267,-0.3938 -1.31267,-1.1456v-2.36281c0,-0.7518 0.47733,-1.1456 1.31267,-1.1456c0.8234,0 1.30074,0.3938 1.30074,1.1456z" data-paper-data="{&quot;glyphName&quot;:&quot;O&quot;,&quot;glyphIndex&quot;:20,&quot;lastGlyphOfWord&quot;:true,&quot;word&quot;:4}"></path></g><g data-paper-data="{&quot;isPrimaryText&quot;:true}" fill-rule="nonzero"><path d="M133.92989,329.94885c-0.11281,0.47943 -0.04935,0.839 0.19036,1.07872c0.23972,0.23972 0.52878,0.35957 0.86721,0.35957c0.33842,0 0.68389,-0.11281 1.03642,-0.33842c0.35252,-0.22561 0.57109,-0.56404 0.65569,-1.01527l5.28784,-22.54735c0.11281,-0.45123 0.04935,-0.7967 -0.19036,-1.03642c-0.23972,-0.23972 -0.54288,-0.36662 -0.90951,-0.38072c-0.36662,-0.0141 -0.71915,0.09871 -1.05757,0.33842c-0.33842,0.23972 -0.56404,0.58519 -0.67684,1.03642zM130.03804,303.97498c0.0282,0 0.35957,-0.00705 0.99411,-0.02115c0.63454,-0.0141 1.46649,-0.0282 2.49586,-0.0423c1.02937,-0.0141 2.19974,-0.03525 3.51113,-0.06345c1.31138,-0.0282 2.65097,-0.04935 4.01876,-0.06345c1.36779,-0.0141 2.70737,-0.0282 4.01876,-0.0423c1.31138,-0.0141 2.47471,-0.02115 3.48997,-0.02115c0.36662,0.0282 0.7403,0.14806 1.12102,0.35957c0.38072,0.21151 0.73325,0.47943 1.05757,0.80375c0.32432,0.32432 0.57814,0.69094 0.76145,1.09987c0.18331,0.40893 0.27497,0.8249 0.27497,1.24793c-0.14101,1.01527 -0.33137,2.17859 -0.57109,3.48997c-0.23972,1.31138 -0.50058,2.69327 -0.7826,4.14567c-0.28202,1.45239 -0.59224,2.94004 -0.93066,4.46294c-0.33842,1.5229 -0.67684,2.99644 -1.01527,4.42063c-0.33842,1.42419 -0.66979,2.76378 -0.99411,4.01876c-0.32432,1.25498 -0.61339,2.3478 -0.86721,3.27846c-0.22561,0.47943 -0.51468,0.89541 -0.86721,1.24793c-0.35252,0.35252 -0.7262,0.66979 -1.12102,0.95181c-0.50763,0.33842 -0.98001,0.59224 -1.41714,0.76145c-0.43713,0.16921 -0.839,0.28202 -1.20563,0.33842c-0.36662,0.0564 -0.71915,0.08461 -1.05757,0.08461c-0.33842,0 -0.66274,0.0141 -0.97296,0.0423c-1.07167,0.0282 -2.21384,0.0564 -3.42652,0.08461c-1.21268,0.0282 -2.41831,0.0423 -3.61688,0.0423c-1.19858,0 -2.35485,-0.0141 -3.46882,-0.0423c-1.11397,-0.0282 -2.10103,-0.06345 -2.96119,-0.10576c-0.86016,-0.0423 -1.5511,-0.10576 -2.07283,-0.19036c-0.52173,-0.08461 -0.7967,-0.18331 -0.8249,-0.29612c-0.0564,-0.19741 -0.0141,-0.77555 0.12691,-1.73441c0.14101,-0.95886 0.35252,-2.15744 0.63454,-3.59573c0.28202,-1.43829 0.62044,-3.0458 1.01527,-4.82251c0.39483,-1.77671 0.7967,-3.58163 1.20563,-5.41475c0.40893,-1.83312 0.81785,-3.60983 1.22678,-5.33014c0.40893,-1.72031 0.77555,-3.25731 1.09987,-4.611c0.32432,-1.35369 0.58519,-2.43946 0.7826,-3.25731c0.19741,-0.81785 0.31022,-1.22678 0.33842,-1.22678z" data-paper-data="{&quot;glyphName&quot;:&quot;D&quot;,&quot;glyphIndex&quot;:0,&quot;firstGlyphOfWord&quot;:true,&quot;word&quot;:1}"></path><path d="M156.01191,303.97498c0,0 0.25382,-0.00705 0.76145,-0.02115c0.50763,-0.0141 1.17743,-0.0282 2.00938,-0.0423c0.83195,-0.0141 1.79081,-0.0282 2.87658,-0.0423c1.08577,-0.0141 2.22089,-0.02115 3.40537,-0.02115c-0.39483,1.12807 -0.81785,2.3901 -1.26908,3.78609c-0.45123,1.39599 -0.86016,2.82723 -1.22678,4.29373c-0.36662,1.46649 -0.67684,2.93299 -0.93066,4.39948c-0.25382,1.46649 -0.38777,2.84133 -0.40188,4.12451c-0.0141,1.28318 0.10576,2.43241 0.35957,3.44767c0.25382,1.01527 0.70505,1.80492 1.35369,2.36895c0.28202,0.22561 0.62749,0.31022 1.03642,0.25382c0.40893,-0.0564 0.7544,-0.23972 1.03642,-0.54994c0.31022,-0.31022 0.47943,-0.66274 0.50763,-1.05757c0.0282,-0.39483 -0.09871,-0.70505 -0.38072,-0.93066c-0.50763,-0.45123 -0.84605,-1.11397 -1.01527,-1.98823c-0.16921,-0.87426 -0.21151,-1.88952 -0.12691,-3.0458c0.08461,-1.15627 0.26087,-2.39715 0.52878,-3.72264c0.26792,-1.32549 0.59224,-2.66507 0.97296,-4.01876c0.38072,-1.35369 0.7826,-2.66507 1.20563,-3.93415c0.42303,-1.26908 0.81785,-2.42536 1.18448,-3.46882c1.26908,-0.0282 2.50291,-0.04935 3.70149,-0.06345c1.19858,-0.0141 2.25614,-0.02115 3.1727,-0.02115c0.91656,0 1.65686,0 2.22089,0c0.56404,0 0.84605,0 0.84605,0c0.14101,0.14101 0.16921,0.67684 0.08461,1.6075c-0.08461,0.93066 -0.23972,2.10103 -0.46533,3.51113c-0.22561,1.41009 -0.50763,2.99644 -0.84605,4.75906c-0.33842,1.76261 -0.70505,3.56048 -1.09987,5.3936c-0.39483,1.83312 -0.80375,3.62393 -1.22678,5.37244c-0.42303,1.74851 -0.8108,3.31371 -1.16332,4.6956c-0.35252,1.38189 -0.66979,2.51701 -0.95181,3.40537c-0.28202,0.88836 -0.49353,1.38894 -0.63454,1.50175c-0.16921,0.11281 -0.8249,0.21856 -1.96708,0.31727c-1.14217,0.09871 -2.51701,0.17626 -4.12451,0.23266c-1.6075,0.0564 -3.32781,0.09166 -5.16093,0.10576c-1.83312,0.0141 -3.53933,0 -5.11863,-0.0423c-1.5793,-0.0423 -2.89774,-0.11281 -3.9553,-0.21151c-1.05757,-0.09871 -1.61455,-0.23266 -1.67096,-0.40188c-0.0564,-0.19741 -0.0141,-0.77555 0.12691,-1.73441c0.14101,-0.95886 0.35957,-2.15744 0.65569,-3.59573c0.29612,-1.43829 0.63454,-3.0458 1.01527,-4.82251c0.38072,-1.77671 0.7826,-3.58163 1.20563,-5.41475c0.42303,-1.83312 0.839,-3.60983 1.24793,-5.33014c0.40893,-1.72031 0.77555,-3.25731 1.09987,-4.611c0.32432,-1.35369 0.58519,-2.43946 0.7826,-3.25731c0.19741,-0.81785 0.31022,-1.22678 0.33842,-1.22678z" data-paper-data="{&quot;glyphName&quot;:&quot;U&quot;,&quot;glyphIndex&quot;:1,&quot;word&quot;:1}"></path><path d="M189.13493,314.21224c-0.14101,0.47943 -0.09871,0.84605 0.12691,1.09987c0.22561,0.25382 0.51468,0.39483 0.86721,0.42303c0.35252,0.0282 0.70505,-0.06345 1.05757,-0.27497c0.35252,-0.21151 0.59929,-0.55699 0.7403,-1.03642l1.18448,-4.35718c0.11281,-0.45123 0.06345,-0.80375 -0.14806,-1.05757c-0.21151,-0.25382 -0.49353,-0.39483 -0.84605,-0.42303c-0.35252,-0.0282 -0.70505,0.06345 -1.05757,0.27497c-0.35252,0.21151 -0.59929,0.54288 -0.7403,0.99411zM181.94347,303.97498c0,0 0.31727,-0.00705 0.95181,-0.02115c0.63454,-0.0141 1.45944,-0.0282 2.47471,-0.0423c1.01527,-0.0141 2.17154,-0.03525 3.46882,-0.06345c1.29728,-0.0282 2.62982,-0.04935 3.99761,-0.06345c1.36779,-0.0141 2.70032,-0.0282 3.99761,-0.0423c1.29728,-0.0141 2.46061,-0.02115 3.48997,-0.02115c1.02937,0 1.86132,0 2.49586,0c0.63454,0 0.95181,0 0.95181,0c0.14101,0.14101 0.17626,0.65569 0.10576,1.54405c-0.0705,0.88836 -0.21856,2.00938 -0.44418,3.36307c-0.22561,1.35369 -0.50763,2.87658 -0.84605,4.56869c-0.33842,1.69211 -0.69094,3.42652 -1.05757,5.20323c-0.59224,0.45123 -1.27613,0.80375 -2.05168,1.05757c-0.77555,0.25382 -1.5652,0.43713 -2.36895,0.54994c-0.80375,0.11281 -1.6075,0.17626 -2.41125,0.19036c-0.80375,0.0141 -1.54405,0.00705 -2.22089,-0.02115c-0.28202,-0.0282 -0.67684,-0.09166 -1.18448,-0.19036c-0.50763,-0.09871 -1.01527,-0.14806 -1.5229,-0.14806c-0.50763,0 -0.97296,0.09166 -1.39599,0.27497c-0.42303,0.18331 -0.69094,0.54288 -0.80375,1.07872c-0.70505,2.70737 -0.839,5.18208 -0.40188,7.42413c0.43713,2.24204 1.38894,4.22322 2.85543,5.94353c-1.5793,0.0564 -3.21501,0.07755 -4.90711,0.06345c-1.69211,-0.0141 -3.24321,-0.0423 -4.6533,-0.08461c-1.41009,-0.0423 -2.58047,-0.11281 -3.51113,-0.21151c-0.93066,-0.09871 -1.42419,-0.23266 -1.48059,-0.40188c-0.0564,-0.19741 -0.0141,-0.77555 0.12691,-1.73441c0.14101,-0.95886 0.35252,-2.15744 0.63454,-3.59573c0.28202,-1.43829 0.62044,-3.03874 1.01527,-4.80136c0.39483,-1.76261 0.7967,-3.56048 1.20563,-5.3936c0.40893,-1.83312 0.81785,-3.60983 1.22678,-5.33014c0.40893,-1.72031 0.77555,-3.25731 1.09987,-4.611c0.32432,-1.35369 0.59224,-2.43946 0.80375,-3.25731c0.21151,-0.81785 0.33137,-1.22678 0.35957,-1.22678z" data-paper-data="{&quot;glyphName&quot;:&quot;P&quot;,&quot;glyphIndex&quot;:2,&quot;word&quot;:1}"></path><path d="M207.83273,303.97498c0,0 0.31022,-0.00705 0.93066,-0.02115c0.62044,-0.0141 1.43829,-0.03525 2.45356,-0.06345c1.01527,-0.0282 2.17154,-0.04935 3.46882,-0.06345c1.29728,-0.0141 2.62277,-0.02115 3.97646,-0.02115c-0.14101,1.88952 -0.40188,3.84955 -0.7826,5.88008c-0.38072,2.03053 -0.8108,4.03286 -1.29023,6.00699c-0.47943,1.97413 -0.98001,3.8425 -1.50175,5.60511c-0.52173,1.76261 -0.99411,3.31371 -1.41714,4.6533c-0.42303,1.33959 -0.77555,2.4042 -1.05757,3.19385c-0.28202,0.78965 -0.42303,1.18448 -0.42303,1.18448c-0.11281,0.28202 -0.14101,0.55699 -0.08461,0.8249c0.0564,0.26792 0.21151,0.47238 0.46533,0.61339c0.31022,0.19741 0.66274,0.24677 1.05757,0.14806c0.39483,-0.09871 0.70505,-0.31727 0.93066,-0.65569c0.0282,0 0.29612,-0.28202 0.80375,-0.84605c0.50763,-0.56404 1.24793,-1.20563 2.22089,-1.92477c0.97296,-0.71915 2.15744,-1.40304 3.55343,-2.05168c1.39599,-0.64864 2.98234,-1.07167 4.75906,-1.26908c-0.28202,1.18448 -0.55699,2.2914 -0.8249,3.32076c-0.26792,1.02937 -0.51468,1.93887 -0.7403,2.72853c-0.22561,0.78965 -0.43008,1.42419 -0.61339,1.90362c-0.18331,0.47943 -0.31727,0.76145 -0.40188,0.84605c-0.16921,0.11281 -0.81785,0.21856 -1.94592,0.31727c-1.12807,0.09871 -2.49586,0.17626 -4.10336,0.23266c-1.6075,0.0564 -3.33486,0.09166 -5.18208,0.10576c-1.84722,0.0141 -3.55343,0 -5.11863,-0.0423c-1.5652,-0.0423 -2.87658,-0.11281 -3.93415,-0.21151c-1.05757,-0.09871 -1.61455,-0.23266 -1.67096,-0.40188c-0.0564,-0.19741 -0.0141,-0.77555 0.12691,-1.73441c0.14101,-0.95886 0.35252,-2.15744 0.63454,-3.59573c0.28202,-1.43829 0.62044,-3.0458 1.01527,-4.82251c0.39483,-1.77671 0.7967,-3.58163 1.20563,-5.41475c0.40893,-1.83312 0.81785,-3.60983 1.22678,-5.33014c0.40893,-1.72031 0.77555,-3.25731 1.09987,-4.611c0.32432,-1.35369 0.59224,-2.43946 0.80375,-3.25731c0.21151,-0.81785 0.33137,-1.22678 0.35957,-1.22678z" data-paper-data="{&quot;glyphName&quot;:&quot;L&quot;,&quot;glyphIndex&quot;:3,&quot;word&quot;:1}"></path><path d="M240.78655,314.21224c-0.14101,0.47943 -0.09166,0.84605 0.14806,1.09987c0.23972,0.25382 0.53583,0.39483 0.88836,0.42303c0.35252,0.0282 0.70505,-0.06345 1.05757,-0.27497c0.35252,-0.21151 0.59929,-0.55699 0.7403,-1.03642l1.22678,-4.52639c0.11281,-0.45123 0.0564,-0.8108 -0.16921,-1.07872c-0.22561,-0.26792 -0.50763,-0.40893 -0.84605,-0.42303c-0.33842,-0.0141 -0.69094,0.08461 -1.05757,0.29612c-0.36662,0.21151 -0.60634,0.55699 -0.71915,1.03642zM233.67969,303.93268c0,0 0.31022,-0.00705 0.93066,-0.02115c0.62044,-0.0141 1.44534,-0.0282 2.47471,-0.0423c1.02937,-0.0141 2.19269,-0.0282 3.48997,-0.0423c1.29728,-0.0141 2.62277,-0.0282 3.97646,-0.0423c1.35369,-0.0141 2.68622,-0.0282 3.99761,-0.0423c1.31138,-0.0141 2.47471,-0.0282 3.48997,-0.0423c1.01527,-0.0141 1.84017,-0.02115 2.47471,-0.02115c0.63454,0 0.95181,0.0141 0.95181,0.0423c0.14101,0.14101 0.16921,0.67684 0.08461,1.6075c-0.08461,0.93066 -0.23972,2.10103 -0.46533,3.51113c-0.22561,1.41009 -0.50763,2.99644 -0.84605,4.75906c-0.33842,1.76261 -0.70505,3.55343 -1.09987,5.37244c-0.39483,1.81902 -0.80375,3.60278 -1.22678,5.35129c-0.42303,1.74851 -0.8108,3.32076 -1.16332,4.71675c-0.35252,1.39599 -0.66979,2.53111 -0.95181,3.40537c-0.28202,0.87426 -0.49353,1.36779 -0.63454,1.48059c-0.14101,0.08461 -0.50058,0.16216 -1.07872,0.23266c-0.57814,0.0705 -1.31843,0.13396 -2.22089,0.19036c-0.90246,0.0564 -1.91772,0.10576 -3.0458,0.14806c-1.12807,0.0423 -2.29845,0.06345 -3.51113,0.06345c-0.0282,-1.01527 0.0423,-2.04463 0.21151,-3.0881c0.16921,-1.04347 0.36662,-1.98823 0.59224,-2.83428c0.25382,-0.98706 0.53583,-1.94592 0.84605,-2.87658c0.16921,-0.47943 0.14806,-0.8531 -0.06345,-1.12102c-0.21151,-0.26792 -0.48648,-0.43008 -0.8249,-0.48648c-0.33842,-0.0564 -0.69094,0.0141 -1.05757,0.21151c-0.36662,0.19741 -0.62044,0.52173 -0.76145,0.97296c0,0 -0.09166,0.27497 -0.27497,0.8249c-0.18331,0.54994 -0.38072,1.26203 -0.59224,2.13629c-0.21151,0.87426 -0.40893,1.86132 -0.59224,2.96119c-0.18331,1.09987 -0.28907,2.21384 -0.31727,3.34191c-1.21268,0 -2.36895,-0.02115 -3.46882,-0.06345c-1.09987,-0.0423 -2.07283,-0.09166 -2.91889,-0.14806c-0.84605,-0.0564 -1.537,-0.11986 -2.07283,-0.19036c-0.53583,-0.0705 -0.81785,-0.16216 -0.84605,-0.27497c-0.0564,-0.19741 -0.0141,-0.77555 0.12691,-1.73441c0.14101,-0.95886 0.35957,-2.15744 0.65569,-3.59573c0.29612,-1.43829 0.63454,-3.0458 1.01527,-4.82251c0.38072,-1.77671 0.7826,-3.57458 1.20563,-5.3936c0.42303,-1.81902 0.839,-3.59573 1.24793,-5.33014c0.40893,-1.73441 0.77555,-3.27141 1.09987,-4.611c0.32432,-1.33959 0.59224,-2.42536 0.80375,-3.25731c0.21151,-0.83195 0.33137,-1.24793 0.35957,-1.24793z" data-paper-data="{&quot;glyphName&quot;:&quot;A&quot;,&quot;glyphIndex&quot;:4,&quot;lastGlyphOfWord&quot;:true,&quot;word&quot;:1}"></path><path d="M272.30207,303.97498c0.0282,0 0.35252,-0.00705 0.97296,-0.02115c0.62044,-0.0141 1.44534,-0.0282 2.47471,-0.0423c1.02937,-0.0141 2.19974,-0.03525 3.51113,-0.06345c1.31138,-0.0282 2.64392,-0.04935 3.99761,-0.06345c1.35369,-0.0141 2.68622,-0.0282 3.99761,-0.0423c1.31138,-0.0141 2.47471,-0.02115 3.48997,-0.02115c1.01527,0 1.84017,0 2.47471,0c0.63454,0 0.95181,0 0.95181,0c0.08461,0.11281 0.11281,0.43713 0.08461,0.97296c-0.0282,0.53583 -0.09166,1.22678 -0.19036,2.07283c-0.09871,0.84605 -0.23972,1.81197 -0.42303,2.89774c-0.18331,1.08577 -0.40188,2.24909 -0.65569,3.48997c-1.72031,-0.16921 -3.13745,-0.58519 -4.25142,-1.24793c-1.11397,-0.66274 -2.00233,-1.34664 -2.66507,-2.05168c-0.66274,-0.70505 -1.12807,-1.34664 -1.39599,-1.92477c-0.26792,-0.57814 -0.40188,-0.86721 -0.40188,-0.86721c-0.11281,-0.31022 -0.31022,-0.52173 -0.59224,-0.63454c-0.28202,-0.11281 -0.57109,-0.12691 -0.86721,-0.0423c-0.29612,0.08461 -0.57814,0.24677 -0.84605,0.48648c-0.26792,0.23972 -0.44418,0.54288 -0.52878,0.90951l-4.82251,22.75886c-0.08461,0.36662 -0.04935,0.66979 0.10576,0.90951c0.15511,0.23972 0.37367,0.39483 0.65569,0.46533c0.28202,0.0705 0.58519,0.04935 0.90951,-0.06345c0.32432,-0.11281 0.62749,-0.33842 0.90951,-0.67684c0.11281,-0.16921 0.45123,-0.54288 1.01527,-1.12102c0.56404,-0.57814 1.31843,-1.19858 2.2632,-1.86132c0.94476,-0.66274 2.08693,-1.29023 3.42652,-1.88247c1.33959,-0.59224 2.84133,-0.97296 4.50524,-1.14217c-0.28202,1.18448 -0.55699,2.2914 -0.8249,3.32076c-0.26792,1.02937 -0.51468,1.93887 -0.7403,2.72853c-0.22561,0.78965 -0.42303,1.42419 -0.59224,1.90362c-0.16921,0.47943 -0.29612,0.76145 -0.38072,0.84605c-0.14101,0.08461 -0.55699,0.16921 -1.24793,0.25382c-0.69094,0.08461 -1.55815,0.15511 -2.60162,0.21151c-1.04347,0.0564 -2.21384,0.09871 -3.51113,0.12691c-1.29728,0.0282 -2.60867,0.04935 -3.93415,0.06345c-1.32549,0.0141 -2.62277,0.00705 -3.89185,-0.02115c-1.26908,-0.0282 -2.39715,-0.0705 -3.38422,-0.12691c-0.98706,-0.0564 -1.79787,-0.12691 -2.43241,-0.21151c-0.63454,-0.08461 -0.96591,-0.18331 -0.99411,-0.29612c-0.0564,-0.19741 -0.0141,-0.77555 0.12691,-1.73441c0.14101,-0.95886 0.35252,-2.15744 0.63454,-3.59573c0.28202,-1.43829 0.62044,-3.0458 1.01527,-4.82251c0.39483,-1.77671 0.7967,-3.58163 1.20563,-5.41475c0.40893,-1.83312 0.81785,-3.60983 1.22678,-5.33014c0.40893,-1.72031 0.77555,-3.25731 1.09987,-4.611c0.32432,-1.35369 0.58519,-2.43946 0.7826,-3.25731c0.19741,-0.81785 0.31022,-1.22678 0.33842,-1.22678z" data-paper-data="{&quot;glyphName&quot;:&quot;C&quot;,&quot;glyphIndex&quot;:5,&quot;firstGlyphOfWord&quot;:true,&quot;word&quot;:2}"></path><path d="M305.21358,314.21224c-0.14101,0.47943 -0.09166,0.84605 0.14806,1.09987c0.23972,0.25382 0.53583,0.39483 0.88836,0.42303c0.35252,0.0282 0.70505,-0.06345 1.05757,-0.27497c0.35252,-0.21151 0.59929,-0.55699 0.7403,-1.03642l1.22678,-4.52639c0.11281,-0.45123 0.0564,-0.8108 -0.16921,-1.07872c-0.22561,-0.26792 -0.50763,-0.40893 -0.84605,-0.42303c-0.33842,-0.0141 -0.69094,0.08461 -1.05757,0.29612c-0.36662,0.21151 -0.60634,0.55699 -0.71915,1.03642zM298.10672,303.93268c0,0 0.31022,-0.00705 0.93066,-0.02115c0.62044,-0.0141 1.44534,-0.0282 2.47471,-0.0423c1.02937,-0.0141 2.19269,-0.0282 3.48997,-0.0423c1.29728,-0.0141 2.62277,-0.0282 3.97646,-0.0423c1.35369,-0.0141 2.68622,-0.0282 3.99761,-0.0423c1.31138,-0.0141 2.47471,-0.0282 3.48997,-0.0423c1.01527,-0.0141 1.84017,-0.02115 2.47471,-0.02115c0.63454,0 0.95181,0.0141 0.95181,0.0423c0.14101,0.14101 0.16921,0.67684 0.08461,1.6075c-0.08461,0.93066 -0.23972,2.10103 -0.46533,3.51113c-0.22561,1.41009 -0.50763,2.99644 -0.84605,4.75906c-0.33842,1.76261 -0.70505,3.55343 -1.09987,5.37244c-0.39483,1.81902 -0.80375,3.60278 -1.22678,5.35129c-0.42303,1.74851 -0.8108,3.32076 -1.16332,4.71675c-0.35252,1.39599 -0.66979,2.53111 -0.95181,3.40537c-0.28202,0.87426 -0.49353,1.36779 -0.63454,1.48059c-0.14101,0.08461 -0.50058,0.16216 -1.07872,0.23266c-0.57814,0.0705 -1.31843,0.13396 -2.22089,0.19036c-0.90246,0.0564 -1.91772,0.10576 -3.0458,0.14806c-1.12807,0.0423 -2.29845,0.06345 -3.51113,0.06345c-0.0282,-1.01527 0.0423,-2.04463 0.21151,-3.0881c0.16921,-1.04347 0.36662,-1.98823 0.59224,-2.83428c0.25382,-0.98706 0.53583,-1.94592 0.84605,-2.87658c0.16921,-0.47943 0.14806,-0.8531 -0.06345,-1.12102c-0.21151,-0.26792 -0.48648,-0.43008 -0.8249,-0.48648c-0.33842,-0.0564 -0.69094,0.0141 -1.05757,0.21151c-0.36662,0.19741 -0.62044,0.52173 -0.76145,0.97296c0,0 -0.09166,0.27497 -0.27497,0.8249c-0.18331,0.54994 -0.38072,1.26203 -0.59224,2.13629c-0.21151,0.87426 -0.40893,1.86132 -0.59224,2.96119c-0.18331,1.09987 -0.28907,2.21384 -0.31727,3.34191c-1.21268,0 -2.36895,-0.02115 -3.46882,-0.06345c-1.09987,-0.0423 -2.07283,-0.09166 -2.91889,-0.14806c-0.84605,-0.0564 -1.537,-0.11986 -2.07283,-0.19036c-0.53583,-0.0705 -0.81785,-0.16216 -0.84605,-0.27497c-0.0564,-0.19741 -0.0141,-0.77555 0.12691,-1.73441c0.14101,-0.95886 0.35957,-2.15744 0.65569,-3.59573c0.29612,-1.43829 0.63454,-3.0458 1.01527,-4.82251c0.38072,-1.77671 0.7826,-3.57458 1.20563,-5.3936c0.42303,-1.81902 0.839,-3.59573 1.24793,-5.33014c0.40893,-1.73441 0.77555,-3.27141 1.09987,-4.611c0.32432,-1.33959 0.59224,-2.42536 0.80375,-3.25731c0.21151,-0.83195 0.33137,-1.24793 0.35957,-1.24793z" data-paper-data="{&quot;glyphName&quot;:&quot;A&quot;,&quot;glyphIndex&quot;:6,&quot;word&quot;:2}"></path><path d="M323.69987,303.97498c0,0 0.27497,-0.0141 0.8249,-0.0423c0.54994,-0.0282 1.23383,-0.04935 2.05168,-0.06345c0.81785,-0.0141 1.69916,-0.03525 2.64392,-0.06345c0.94476,-0.0282 1.81902,-0.04935 2.62277,-0.06345c0.80375,-0.0141 1.48059,-0.02115 2.03053,-0.02115c0.54994,0 0.8249,0 0.8249,0c0.0564,0.14101 0.0141,0.67684 -0.12691,1.6075c-0.14101,0.93066 -0.34547,2.10103 -0.61339,3.51113c-0.26792,1.41009 -0.57814,2.99644 -0.93066,4.75906c-0.35252,1.76261 -0.7262,3.56048 -1.12102,5.3936c-0.39483,1.83312 -0.78965,3.62393 -1.18448,5.37244c-0.39483,1.74851 -0.7544,3.31371 -1.07872,4.6956c-0.32432,1.38189 -0.60634,2.51701 -0.84605,3.40537c-0.23972,0.88836 -0.40188,1.38894 -0.48648,1.50175c-0.11281,0.11281 -0.45123,0.21856 -1.01527,0.31727c-0.56404,0.09871 -1.25498,0.17626 -2.07283,0.23266c-0.81785,0.0564 -1.68506,0.09166 -2.60162,0.10576c-0.91656,0.0141 -1.76261,0 -2.53816,-0.0423c-0.77555,-0.0423 -1.42419,-0.11281 -1.94592,-0.21151c-0.52173,-0.09871 -0.7826,-0.23266 -0.7826,-0.40188c-0.0282,-0.19741 0.04935,-0.77555 0.23266,-1.73441c0.18331,-0.95886 0.41598,-2.15744 0.69799,-3.59573c0.28202,-1.43829 0.61339,-3.0458 0.99411,-4.82251c0.38072,-1.77671 0.77555,-3.58163 1.18448,-5.41475c0.40893,-1.83312 0.80375,-3.60983 1.18448,-5.33014c0.38072,-1.72031 0.71915,-3.25731 1.01527,-4.611c0.29612,-1.35369 0.54288,-2.43946 0.7403,-3.25731c0.19741,-0.81785 0.29612,-1.22678 0.29612,-1.22678z" data-paper-data="{&quot;glyphName&quot;:&quot;I&quot;,&quot;glyphIndex&quot;:7,&quot;word&quot;:2}"></path><path d="M345.52807,314.21224c-0.14101,0.47943 -0.09871,0.84605 0.12691,1.09987c0.22561,0.25382 0.51468,0.39483 0.86721,0.42303c0.35252,0.0282 0.70505,-0.06345 1.05757,-0.27497c0.35252,-0.21151 0.59929,-0.55699 0.7403,-1.03642l1.18448,-4.35718c0.11281,-0.45123 0.06345,-0.80375 -0.14806,-1.05757c-0.21151,-0.25382 -0.49353,-0.39483 -0.84605,-0.42303c-0.35252,-0.0282 -0.70505,0.06345 -1.05757,0.27497c-0.35252,0.21151 -0.59929,0.54288 -0.7403,0.99411zM338.33661,303.97498c0,0 0.31727,-0.00705 0.95181,-0.02115c0.63454,-0.0141 1.45944,-0.0282 2.47471,-0.0423c1.01527,-0.0141 2.17154,-0.03525 3.46882,-0.06345c1.29728,-0.0282 2.62982,-0.04935 3.99761,-0.06345c1.36779,-0.0141 2.70032,-0.0282 3.99761,-0.0423c1.29728,-0.0141 2.46061,-0.02115 3.48997,-0.02115c1.02937,0 1.86132,0 2.49586,0c0.63454,0 0.95181,0 0.95181,0c0.14101,0.14101 0.17626,0.65569 0.10576,1.54405c-0.0705,0.88836 -0.21856,2.00938 -0.44418,3.36307c-0.22561,1.35369 -0.50763,2.87658 -0.84605,4.56869c-0.33842,1.69211 -0.69094,3.42652 -1.05757,5.20323c-0.59224,0.45123 -1.27613,0.80375 -2.05168,1.05757c-0.77555,0.25382 -1.5652,0.43713 -2.36895,0.54994c-0.80375,0.11281 -1.6075,0.17626 -2.41125,0.19036c-0.80375,0.0141 -1.54405,0.00705 -2.22089,-0.02115c-0.28202,-0.0282 -0.67684,-0.09166 -1.18448,-0.19036c-0.50763,-0.09871 -1.01527,-0.14806 -1.5229,-0.14806c-0.50763,0 -0.97296,0.09166 -1.39599,0.27497c-0.42303,0.18331 -0.69094,0.54288 -0.80375,1.07872c-0.70505,2.70737 -0.839,5.18208 -0.40188,7.42413c0.43713,2.24204 1.38894,4.22322 2.85543,5.94353c-1.5793,0.0564 -3.21501,0.07755 -4.90711,0.06345c-1.69211,-0.0141 -3.24321,-0.0423 -4.6533,-0.08461c-1.41009,-0.0423 -2.58047,-0.11281 -3.51113,-0.21151c-0.93066,-0.09871 -1.42419,-0.23266 -1.48059,-0.40188c-0.0564,-0.19741 -0.0141,-0.77555 0.12691,-1.73441c0.14101,-0.95886 0.35252,-2.15744 0.63454,-3.59573c0.28202,-1.43829 0.62044,-3.03874 1.01527,-4.80136c0.39483,-1.76261 0.7967,-3.56048 1.20563,-5.3936c0.40893,-1.83312 0.81785,-3.60983 1.22678,-5.33014c0.40893,-1.72031 0.77555,-3.25731 1.09987,-4.611c0.32432,-1.35369 0.59224,-2.43946 0.80375,-3.25731c0.21151,-0.81785 0.33137,-1.22678 0.35957,-1.22678z" data-paper-data="{&quot;glyphName&quot;:&quot;P&quot;,&quot;glyphIndex&quot;:8,&quot;word&quot;:2}"></path><path d="M363.92975,303.97498c0,0 0.27497,-0.0141 0.8249,-0.0423c0.54994,-0.0282 1.23383,-0.04935 2.05168,-0.06345c0.81785,-0.0141 1.69916,-0.03525 2.64392,-0.06345c0.94476,-0.0282 1.81902,-0.04935 2.62277,-0.06345c0.80375,-0.0141 1.48059,-0.02115 2.03053,-0.02115c0.54994,0 0.8249,0 0.8249,0c0.0564,0.14101 0.0141,0.67684 -0.12691,1.6075c-0.14101,0.93066 -0.34547,2.10103 -0.61339,3.51113c-0.26792,1.41009 -0.57814,2.99644 -0.93066,4.75906c-0.35252,1.76261 -0.7262,3.56048 -1.12102,5.3936c-0.39483,1.83312 -0.78965,3.62393 -1.18448,5.37244c-0.39483,1.74851 -0.7544,3.31371 -1.07872,4.6956c-0.32432,1.38189 -0.60634,2.51701 -0.84605,3.40537c-0.23972,0.88836 -0.40188,1.38894 -0.48648,1.50175c-0.11281,0.11281 -0.45123,0.21856 -1.01527,0.31727c-0.56404,0.09871 -1.25498,0.17626 -2.07283,0.23266c-0.81785,0.0564 -1.68506,0.09166 -2.60162,0.10576c-0.91656,0.0141 -1.76261,0 -2.53816,-0.0423c-0.77555,-0.0423 -1.42419,-0.11281 -1.94592,-0.21151c-0.52173,-0.09871 -0.7826,-0.23266 -0.7826,-0.40188c-0.0282,-0.19741 0.04935,-0.77555 0.23266,-1.73441c0.18331,-0.95886 0.41598,-2.15744 0.69799,-3.59573c0.28202,-1.43829 0.61339,-3.0458 0.99411,-4.82251c0.38072,-1.77671 0.77555,-3.58163 1.18448,-5.41475c0.40893,-1.83312 0.80375,-3.60983 1.18448,-5.33014c0.38072,-1.72031 0.71915,-3.25731 1.01527,-4.611c0.29612,-1.35369 0.54288,-2.43946 0.7403,-3.25731c0.19741,-0.81785 0.29612,-1.22678 0.29612,-1.22678z" data-paper-data="{&quot;glyphName&quot;:&quot;I&quot;,&quot;glyphIndex&quot;:9,&quot;word&quot;:2}"></path><path d="M378.56649,303.97498c0,0 0.31727,-0.00705 0.95181,-0.02115c0.63454,-0.0141 1.45944,-0.0282 2.47471,-0.0423c1.01527,-0.0141 2.17859,-0.03525 3.48997,-0.06345c1.31138,-0.0282 2.64392,-0.04935 3.99761,-0.06345c1.35369,-0.0141 2.68622,-0.0282 3.99761,-0.0423c1.31138,-0.0141 2.47471,-0.02115 3.48997,-0.02115c1.01527,0 1.84017,0 2.47471,0c0.63454,0 0.95181,0 0.95181,0c0.11281,0.14101 0.14101,0.63454 0.08461,1.48059c-0.0564,0.84605 -0.19036,1.93182 -0.40188,3.25731c-0.21151,1.32549 -0.47943,2.81313 -0.80375,4.46294c-0.32432,1.64981 -0.66979,3.34896 -1.03642,5.09748c-0.56404,0.45123 -1.07167,0.73325 -1.5229,0.84605c-0.45123,0.11281 -0.71915,0.16921 -0.80375,0.16921c-0.31022,0.0282 -0.60634,0.14101 -0.88836,0.33842c-0.28202,0.19741 -0.49353,0.45123 -0.63454,0.76145c-0.16921,0.39483 -0.18331,0.7544 -0.0423,1.07872c0.14101,0.32432 0.39483,0.52878 0.76145,0.61339c0.47943,0.14101 0.86721,0.35252 1.16332,0.63454c0.29612,0.28202 0.54288,0.62044 0.7403,1.01527c-0.31022,1.38189 -0.62044,2.68622 -0.93066,3.913c-0.31022,1.22678 -0.59224,2.31255 -0.84605,3.25731c-0.25382,0.94476 -0.47943,1.70621 -0.67684,2.28435c-0.19741,0.57814 -0.35252,0.90951 -0.46533,0.99411c-1.12807,0.11281 -2.15039,-0.14806 -3.06695,-0.7826c-0.91656,-0.63454 -1.71326,-1.42419 -2.3901,-2.36895c-0.67684,-0.94476 -1.23383,-1.91772 -1.67096,-2.91889c-0.43713,-1.00116 -0.7262,-1.79787 -0.86721,-2.3901c-0.08461,-0.36662 -0.28907,-0.61339 -0.61339,-0.7403c-0.32432,-0.12691 -0.68389,-0.10576 -1.07872,0.06345c-0.39483,0.14101 -0.70505,0.39483 -0.93066,0.76145c-0.22561,0.36662 -0.29612,0.73325 -0.21151,1.09987c0.25382,0.87426 0.54994,1.77671 0.88836,2.70737c0.31022,0.78965 0.69094,1.64276 1.14217,2.55931c0.45123,0.91656 1.00116,1.79787 1.64981,2.64392c-1.5793,0.0564 -3.23616,0.07755 -4.97057,0.06345c-1.73441,-0.0141 -3.32076,-0.0423 -4.75906,-0.08461c-1.43829,-0.0423 -2.63687,-0.11281 -3.59573,-0.21151c-0.95886,-0.09871 -1.46649,-0.23266 -1.5229,-0.40188c-0.0564,-0.19741 -0.0141,-0.77555 0.12691,-1.73441c0.14101,-0.95886 0.35252,-2.15744 0.63454,-3.59573c0.28202,-1.43829 0.62044,-3.03874 1.01527,-4.80136c0.39483,-1.76261 0.7967,-3.56048 1.20563,-5.3936c0.40893,-1.83312 0.81785,-3.60983 1.22678,-5.33014c0.40893,-1.72031 0.77555,-3.25731 1.09987,-4.611c0.32432,-1.35369 0.59224,-2.43946 0.80375,-3.25731c0.21151,-0.81785 0.33137,-1.22678 0.35957,-1.22678zM385.75795,314.21224c-0.14101,0.39483 -0.10576,0.7403 0.10576,1.03642c0.21151,0.29612 0.50058,0.45828 0.86721,0.48648c0.39483,0.0564 0.7685,-0.04935 1.12102,-0.31727c0.35252,-0.26792 0.58519,-0.59929 0.69799,-0.99411l1.18448,-4.35718c0.14101,-0.39483 0.10576,-0.7403 -0.10576,-1.03642c-0.21151,-0.29612 -0.51468,-0.45828 -0.90951,-0.48648c-0.36662,-0.0282 -0.71915,0.08461 -1.05757,0.33842c-0.33842,0.25382 -0.57814,0.57814 -0.71915,0.97296z" data-paper-data="{&quot;glyphName&quot;:&quot;R&quot;,&quot;glyphIndex&quot;:10,&quot;word&quot;:2}"></path><path d="M411.60491,314.21224c-0.14101,0.47943 -0.09166,0.84605 0.14806,1.09987c0.23972,0.25382 0.53583,0.39483 0.88836,0.42303c0.35252,0.0282 0.70505,-0.06345 1.05757,-0.27497c0.35252,-0.21151 0.59929,-0.55699 0.7403,-1.03642l1.22678,-4.52639c0.11281,-0.45123 0.0564,-0.8108 -0.16921,-1.07872c-0.22561,-0.26792 -0.50763,-0.40893 -0.84605,-0.42303c-0.33842,-0.0141 -0.69094,0.08461 -1.05757,0.29612c-0.36662,0.21151 -0.60634,0.55699 -0.71915,1.03642zM404.49805,303.93268c0,0 0.31022,-0.00705 0.93066,-0.02115c0.62044,-0.0141 1.44534,-0.0282 2.47471,-0.0423c1.02937,-0.0141 2.19269,-0.0282 3.48997,-0.0423c1.29728,-0.0141 2.62277,-0.0282 3.97646,-0.0423c1.35369,-0.0141 2.68622,-0.0282 3.99761,-0.0423c1.31138,-0.0141 2.47471,-0.0282 3.48997,-0.0423c1.01527,-0.0141 1.84017,-0.02115 2.47471,-0.02115c0.63454,0 0.95181,0.0141 0.95181,0.0423c0.14101,0.14101 0.16921,0.67684 0.08461,1.6075c-0.08461,0.93066 -0.23972,2.10103 -0.46533,3.51113c-0.22561,1.41009 -0.50763,2.99644 -0.84605,4.75906c-0.33842,1.76261 -0.70505,3.55343 -1.09987,5.37244c-0.39483,1.81902 -0.80375,3.60278 -1.22678,5.35129c-0.42303,1.74851 -0.8108,3.32076 -1.16332,4.71675c-0.35252,1.39599 -0.66979,2.53111 -0.95181,3.40537c-0.28202,0.87426 -0.49353,1.36779 -0.63454,1.48059c-0.14101,0.08461 -0.50058,0.16216 -1.07872,0.23266c-0.57814,0.0705 -1.31843,0.13396 -2.22089,0.19036c-0.90246,0.0564 -1.91772,0.10576 -3.0458,0.14806c-1.12807,0.0423 -2.29845,0.06345 -3.51113,0.06345c-0.0282,-1.01527 0.0423,-2.04463 0.21151,-3.0881c0.16921,-1.04347 0.36662,-1.98823 0.59224,-2.83428c0.25382,-0.98706 0.53583,-1.94592 0.84605,-2.87658c0.16921,-0.47943 0.14806,-0.8531 -0.06345,-1.12102c-0.21151,-0.26792 -0.48648,-0.43008 -0.8249,-0.48648c-0.33842,-0.0564 -0.69094,0.0141 -1.05757,0.21151c-0.36662,0.19741 -0.62044,0.52173 -0.76145,0.97296c0,0 -0.09166,0.27497 -0.27497,0.8249c-0.18331,0.54994 -0.38072,1.26203 -0.59224,2.13629c-0.21151,0.87426 -0.40893,1.86132 -0.59224,2.96119c-0.18331,1.09987 -0.28907,2.21384 -0.31727,3.34191c-1.21268,0 -2.36895,-0.02115 -3.46882,-0.06345c-1.09987,-0.0423 -2.07283,-0.09166 -2.91889,-0.14806c-0.84605,-0.0564 -1.537,-0.11986 -2.07283,-0.19036c-0.53583,-0.0705 -0.81785,-0.16216 -0.84605,-0.27497c-0.0564,-0.19741 -0.0141,-0.77555 0.12691,-1.73441c0.14101,-0.95886 0.35957,-2.15744 0.65569,-3.59573c0.29612,-1.43829 0.63454,-3.0458 1.01527,-4.82251c0.38072,-1.77671 0.7826,-3.57458 1.20563,-5.3936c0.42303,-1.81902 0.839,-3.59573 1.24793,-5.33014c0.40893,-1.73441 0.77555,-3.27141 1.09987,-4.611c0.32432,-1.33959 0.59224,-2.42536 0.80375,-3.25731c0.21151,-0.83195 0.33137,-1.24793 0.35957,-1.24793z" data-paper-data="{&quot;glyphName&quot;:&quot;A&quot;,&quot;glyphIndex&quot;:11,&quot;lastGlyphOfWord&quot;:true,&quot;word&quot;:2}"></path></g><g data-paper-data="{&quot;isIcon&quot;:&quot;true&quot;,&quot;iconType&quot;:&quot;icon&quot;,&quot;rawIconId&quot;:&quot;1072002&quot;,&quot;selectedEffects&quot;:{&quot;container&quot;:&quot;&quot;,&quot;transformation&quot;:&quot;&quot;,&quot;pattern&quot;:&quot;&quot;},&quot;isDetailed&quot;:false,&quot;fillRule&quot;:&quot;evenodd&quot;,&quot;bounds&quot;:{&quot;x&quot;:222.2066488384728,&quot;y&quot;:115,&quot;width&quot;:105.5867023230544,&quot;height&quot;:160.0314257686597},&quot;iconStyle&quot;:&quot;standalone&quot;,&quot;suitableAsStandaloneIcon&quot;:true}" fill-rule="evenodd"><path d="M275.93669,115c-28.63874,0 -51.85505,23.2163 -51.85505,51.85504c0,28.63874 23.2163,51.85505 51.85505,51.85505c28.63874,0 51.85666,-23.2163 51.85666,-51.85505c0,-28.63874 -23.21793,-51.85504 -51.85666,-51.85504zM275.93669,185.89027c-10.51265,0 -19.03523,-8.5242 -19.03523,-19.03685c0,-10.51265 8.52259,-19.03523 19.03523,-19.03523c10.51426,0 19.03523,8.52259 19.03523,19.03523c0,10.51265 -8.52096,19.03685 -19.03523,19.03685zM275.93831,169.94709c2.06136,0 3.09205,-1.03068 3.09205,-3.09205c0,-2.06136 -1.03068,-3.09205 -3.09205,-3.09205c-2.06136,0 -3.09205,1.03068 -3.09205,3.09205c0,2.06136 1.03068,3.09205 3.09205,3.09205zM275.5813,163.79346c-1.69501,0.10793 -2.59653,1.00945 -2.70457,2.70457c0.01999,-0.17113 0.05407,-0.33946 0.10226,-0.50497c0.04819,-0.16541 0.10982,-0.32568 0.18491,-0.48082c0.07497,-0.15504 0.16243,-0.30278 0.26237,-0.44322c0.09983,-0.14045 0.21067,-0.27161 0.33254,-0.39348c0.12186,-0.12186 0.25303,-0.23272 0.39348,-0.33254c0.14045,-0.09993 0.28819,-0.18739 0.44322,-0.26237c0.15514,-0.07509 0.31541,-0.13672 0.48082,-0.18491c0.16551,-0.04819 0.33384,-0.08227 0.50497,-0.10226zM278.9999,166.49803c-0.10804,-1.69512 -1.00956,-2.59664 -2.70457,-2.70457c0.17113,0.01999 0.33946,0.05407 0.50497,0.10226c0.16541,0.04819 0.32568,0.10982 0.48082,0.18491c0.15504,0.07497 0.30278,0.16243 0.44322,0.26237c0.14045,0.09983 0.27161,0.21067 0.39348,0.33254c0.12186,0.12186 0.23272,0.25303 0.33254,0.39348c0.09993,0.14045 0.18739,0.28819 0.26237,0.44322c0.07509,0.15514 0.13672,0.31541 0.18491,0.48082c0.04819,0.16551 0.08227,0.33384 0.10226,0.50497zM275.5813,169.91662c-0.17113,-0.01999 -0.33946,-0.05407 -0.50497,-0.10226c-0.16541,-0.04819 -0.32568,-0.10982 -0.48082,-0.18491c-0.15504,-0.07497 -0.30278,-0.16243 -0.44322,-0.26237c-0.14045,-0.09983 -0.27161,-0.21067 -0.39348,-0.33254c-0.12186,-0.12186 -0.23272,-0.25303 -0.33254,-0.39348c-0.09993,-0.14045 -0.18739,-0.28819 -0.26237,-0.44322c-0.07509,-0.15514 -0.13672,-0.31541 -0.18491,-0.48082c-0.04819,-0.16551 -0.08227,-0.33384 -0.10226,-0.50497c0.10804,1.69501 1.00956,2.59653 2.70457,2.70457zM278.9999,167.21205c-0.01999,0.17113 -0.05407,0.33946 -0.10226,0.50497c-0.04819,0.16541 -0.10982,0.32568 -0.18491,0.48082c-0.07497,0.15504 -0.16243,0.30278 -0.26237,0.44322c-0.09983,0.14045 -0.21067,0.27161 -0.33254,0.39348c-0.12186,0.12186 -0.25303,0.23272 -0.39348,0.33254c-0.14045,0.09993 -0.28819,0.18739 -0.44322,0.26237c-0.15514,0.07509 -0.31541,0.13672 -0.48082,0.18491c-0.16551,0.04819 -0.33384,0.08227 -0.50497,0.10226c1.69501,-0.10804 2.59653,-1.00956 2.70457,-2.70457zM286.68432,222.13922l30.14587,0.04538c2.35469,0 4.2621,1.90741 4.2621,4.26373c0,2.35307 -1.90741,4.2621 -4.2621,4.2621c0,0 -10.99396,-0.07617 -21.07715,3.5766c-7.35901,2.66422 -12.41681,7.62154 -12.41681,7.62154c0,0 -3.11636,1.82477 -5.47429,2.07109l-27.16564,4.59108l-28.48964,26.46069v-30.19125l26.75077,-20.10805c0,0 1.84745,-1.70646 3.79052,-2.19101c1.79073,-0.43917 3.76459,-0.45214 3.76459,-0.45214l24.83688,0.02431c0.90914,0 1.79235,0.25119 2.57022,0.73574c0.66119,0.45538 1.23326,1.05499 1.60923,1.78587c0.37597,0.67092 0.57692,1.44555 0.58503,2.24287c-0.02917,2.63667 -2.16671,4.7661 -4.79203,4.7742l-14.02928,-0.04214l-0.03403,2.51189l14.16865,0.04051c3.5685,0.00486 7.51297,-2.46327 7.51297,-6.89067c0.14099,-1.35804 -0.68388,-4.0968 -2.25583,-5.13235z" data-paper-data="{&quot;isPathIcon&quot;:true}"></path></g></g></g><g class="watermark-group" style="opacity:0.10; stroke: white; stroke-width: 2; stroke-opacity: 0.7;"></g></svg>